<?xml version="1.0" standalone="no"?>
<!DOCTYPE svg PUBLIC "-//W3C//DTD SVG 20010904//EN"
 "http://www.w3.org/TR/2001/REC-SVG-20010904/DTD/svg10.dtd">
<svg version="1.0" xmlns="http://www.w3.org/2000/svg"
 width="301.000000pt" height="301.000000pt" viewBox="0 0 301.000000 301.000000"
 preserveAspectRatio="xMidYMid meet">
<metadata>
Created by potrace 1.11, written by Peter Selinger 2001-2013
</metadata>
<g transform="translate(0.000000,301.000000) scale(0.100000,-0.100000)"
fill="#000000" stroke="none">
<path d="M1325 2848 c-198 -25 -347 -73 -400 -128 -26 -28 -28 -32 -21 -92 4
-35 7 -67 7 -73 -1 -97 -11 -336 -14 -355 -3 -14 -8 -72 -12 -130 -3 -58 -8
-118 -11 -135 -18 -113 46 -496 103 -610 31 -62 68 -126 82 -142 6 -7 11 -17
11 -23 0 -6 9 -28 19 -49 22 -42 185 -201 206 -201 8 0 18 -6 22 -13 4 -7 21
-22 36 -34 16 -12 23 -24 17 -28 -5 -3 -10 -15 -10 -26 0 -10 -6 -19 -12 -20
-32 -2 -51 -9 -95 -36 -25 -15 -62 -37 -81 -48 -38 -22 -70 -59 -77 -90 -2
-11 -18 -54 -35 -95 l-32 -75 22 -69 c47 -147 200 -244 433 -276 l79 -10 92
46 c53 26 119 69 154 100 33 30 65 54 71 54 21 0 20 154 -1 217 -10 29 -18 58
-18 66 0 28 -61 94 -112 122 -81 44 -145 88 -168 118 l-21 27 22 0 c34 0 98
49 120 92 11 21 32 45 47 55 29 18 71 63 72 76 0 4 4 13 10 20 88 108 110 137
110 148 0 8 14 39 30 68 31 56 62 146 54 154 -3 2 3 44 12 93 9 49 16 95 15
102 0 6 0 24 1 40 3 53 3 698 0 737 -2 22 0 86 4 142 7 97 6 103 -19 146 -22
38 -35 47 -89 67 -106 39 -178 60 -229 66 -74 9 -327 10 -394 2z"/>
</g>
</svg>
